<svg width="496" height="171" viewBox="0 0 496 171" fill="none" xmlns="http://www.w3.org/2000/svg">
<path d="M1.12166 0H22.8454V30.0115C26.8637 24.8631 32.5144 20.2169 41.3043 20.2169C54.3637 20.2169 62.2746 28.8814 62.2746 42.9453V83.3792H40.5509V49.9773C40.5509 43.1964 37.0349 39.5549 31.8865 39.5549C26.6125 39.5549 22.7198 43.1964 22.7198 49.9773V83.3792H0.996094V0H1.12166Z" fill="black"/>
<path d="M70.9365 52.7392V52.488C70.9365 34.9081 85.2516 20.2163 105.217 20.2163C124.932 20.2163 139.247 34.657 139.247 52.2369V52.488C139.247 70.068 124.932 84.7598 104.966 84.7598C85.2516 84.7598 70.9365 70.3191 70.9365 52.7392ZM118.026 52.7392V52.488C118.026 44.9538 112.5 38.5497 104.966 38.5497C97.0553 38.5497 92.0324 44.8282 92.0324 52.2369V52.488C92.0324 60.0223 97.5575 66.4264 105.092 66.4264C113.003 66.4264 118.026 60.1479 118.026 52.7392Z" fill="black"/>
<path d="M147.79 61.906V21.4722H169.514V54.8741C169.514 61.6549 173.03 65.2965 178.304 65.2965C183.452 65.2965 187.345 61.6549 187.345 54.8741V21.4722H209.069V83.1276H187.345V74.7143C183.327 79.8627 177.676 84.5088 168.886 84.5088C155.701 84.6344 147.79 75.97 147.79 61.906Z" fill="black"/>
<path d="M215.972 75.5928L224.008 62.5334C231.04 67.1795 238.826 69.5654 245.23 69.5654C248.997 69.5654 250.755 68.4352 250.755 66.3005V66.0494C250.755 63.6636 247.364 62.659 240.835 60.7754C228.654 57.6361 218.985 53.4923 218.985 41.0608V40.8096C218.985 27.7502 229.533 20.3416 243.723 20.3416C252.764 20.3416 262.056 22.9785 269.214 27.4991L261.805 41.1863C255.401 37.6703 248.495 35.5356 243.597 35.5356C240.332 35.5356 238.574 36.7914 238.574 38.5494V38.8005C238.574 41.1863 242.09 42.3165 248.62 44.3256C260.8 47.716 270.469 51.9854 270.469 63.9147V64.1658C270.469 77.7275 260.298 84.7595 245.23 84.7595C234.807 84.6339 224.51 81.7458 215.972 75.5928Z" fill="black"/>
<path d="M276.75 52.7392V52.488C276.75 34.4058 289.684 20.2163 307.892 20.2163C329.239 20.2163 339.033 35.7871 339.033 53.9949C339.033 55.3762 339.033 57.0086 338.908 58.3899H297.595C299.353 65.1707 304.25 68.5612 310.905 68.5612C316.054 68.5612 320.198 66.6776 324.592 62.2826L336.522 72.2027C330.62 79.737 322.081 84.7598 309.65 84.7598C290.437 84.7598 276.75 71.826 276.75 52.7392ZM318.691 47.3397C317.937 40.4333 313.919 36.1638 308.017 36.1638C302.366 36.1638 298.474 40.5588 297.344 47.3397H318.691Z" fill="black"/>
<path d="M348.325 0H370.928V15.9475H348.325V0ZM348.702 21.5982H370.426V83.2536H348.702V21.5982Z" fill="black"/>
<path d="M386.248 64.1677V39.0535H378.965V21.5992H386.248V6.02832H407.972V21.5992H422.287V39.0535H407.972V59.8983C407.972 64.2933 409.855 66.0513 413.874 66.0513C416.762 66.0513 419.524 65.2979 422.036 64.0422V80.9943C418.143 83.129 412.995 84.5102 406.967 84.5102C394.033 84.5102 386.248 78.8596 386.248 64.1677Z" fill="black"/>
<path d="M430.07 96.5631L436.851 81.369C440.242 83.3781 443.883 84.6338 446.269 84.6338C448.404 84.6338 449.911 84.006 451.292 82.1224L427.057 21.5972H449.785L462.091 58.7662L473.769 21.5972H495.995L473.392 81.8713C467.993 96.1864 462.216 101.963 449.911 101.963C442.251 101.837 435.847 99.7023 430.07 96.5631Z" fill="black"/>
<path d="M105.346 80.3655V170.777" stroke="black" stroke-width="18.8356" stroke-miterlimit="10"/>
<path d="M107.354 146.165H128.325" stroke="black" stroke-width="15.1439" stroke-miterlimit="10"/>
<path d="M134.854 160.982V130.719" stroke="black" stroke-width="15.1439" stroke-miterlimit="10"/>
<path d="M198.768 110.25C198.768 111.883 198.391 113.138 197.764 114.017C197.01 114.896 196.131 115.399 194.875 115.399C194.122 115.399 193.494 115.273 192.992 115.022C192.49 114.771 191.987 114.394 191.611 113.892V119.291H190.48V104.725H191.359L191.611 106.358C191.987 105.73 192.364 105.353 192.992 104.976C193.494 104.6 194.248 104.474 195.001 104.474C196.257 104.474 197.261 104.976 198.015 105.981C198.768 106.986 199.019 108.367 199.019 109.999V110.25H198.768ZM197.512 109.999C197.512 108.618 197.261 107.613 196.759 106.734C196.257 105.855 195.503 105.479 194.373 105.479C193.62 105.479 192.992 105.604 192.49 105.981C191.987 106.358 191.611 106.86 191.359 107.362V112.385C191.611 113.013 191.987 113.39 192.49 113.766C192.992 114.143 193.62 114.269 194.373 114.269C195.378 114.269 196.131 113.892 196.633 113.139C197.136 112.385 197.387 111.381 197.387 110.125V109.999H197.512Z" fill="black"/>
<path d="M201.658 109.748C201.658 108.241 202.035 106.986 202.914 105.981C203.793 104.976 204.923 104.474 206.304 104.474C207.686 104.474 208.816 104.976 209.695 105.981C210.574 106.986 210.95 108.241 210.95 109.748V110.125C210.95 111.632 210.574 112.887 209.695 113.892C208.816 114.897 207.686 115.399 206.304 115.399C204.923 115.399 203.793 114.897 202.914 113.892C202.035 112.887 201.658 111.632 201.658 110.125V109.748ZM202.914 110.125C202.914 111.381 203.165 112.385 203.793 113.139C204.421 114.018 205.3 114.394 206.304 114.394C207.434 114.394 208.188 114.018 208.816 113.139C209.444 112.26 209.695 111.255 209.695 110.125V109.748C209.695 108.492 209.444 107.488 208.816 106.734C208.188 105.855 207.309 105.479 206.304 105.479C205.174 105.479 204.421 105.855 203.793 106.734C203.165 107.613 202.914 108.618 202.914 109.748V110.125Z" fill="black"/>
<path d="M216.598 111.759L217.101 113.642L217.603 111.759L219.863 104.727H220.868L223.002 111.759L223.505 113.768H223.63L224.007 111.759L225.89 104.727H227.146L224.133 115.149H223.128L220.742 107.992L220.365 106.234H220.24L219.863 107.992L217.477 115.149H216.473L213.459 104.727H214.715L216.598 111.759Z" fill="black"/>
<path d="M234.433 115.401C233.051 115.401 231.921 114.899 231.168 114.02C230.289 113.015 229.912 111.885 229.912 110.378V109.876C229.912 108.369 230.289 107.113 231.168 106.109C232.047 105.104 233.051 104.602 234.307 104.602C235.563 104.602 236.567 104.979 237.321 105.858C238.074 106.737 238.325 107.741 238.325 109.122V110.001H231.042V110.378C231.042 111.634 231.293 112.513 231.921 113.392C232.549 114.145 233.303 114.522 234.433 114.522C235.061 114.522 235.688 114.396 236.191 114.145C236.693 113.894 237.195 113.643 237.572 113.266L238.074 114.02C237.697 114.396 237.195 114.773 236.567 115.024C235.939 115.275 235.186 115.401 234.433 115.401ZM234.307 105.481C233.428 105.481 232.675 105.858 232.047 106.485C231.419 107.113 231.168 107.992 231.042 108.871H237.07V108.62C237.07 107.741 236.819 106.862 236.316 106.36C235.94 105.732 235.186 105.481 234.307 105.481Z" fill="black"/>
<path d="M246.485 105.604H245.606C244.852 105.604 244.224 105.855 243.848 106.232C243.345 106.609 243.094 107.237 242.843 107.865V115.148H241.713V104.6H242.717L242.843 106.358V106.483C243.094 105.855 243.596 105.353 244.099 104.976C244.601 104.6 245.229 104.474 245.982 104.474C246.108 104.474 246.233 104.474 246.359 104.474C246.485 104.474 246.61 104.474 246.736 104.6L246.485 105.604Z" fill="black"/>
<path d="M253.267 115.401C251.885 115.401 250.755 114.899 250.002 114.02C249.123 113.015 248.746 111.885 248.746 110.378V109.876C248.746 108.369 249.123 107.113 250.002 106.109C250.881 105.104 251.885 104.602 253.141 104.602C254.397 104.602 255.401 104.979 256.155 105.858C256.908 106.737 257.159 107.741 257.159 109.122V110.001H249.876V110.378C249.876 111.634 250.127 112.513 250.755 113.392C251.383 114.145 252.137 114.522 253.267 114.522C253.895 114.522 254.522 114.396 255.025 114.145C255.527 113.894 256.029 113.643 256.406 113.266L256.908 114.02C256.531 114.396 256.029 114.773 255.401 115.024C254.773 115.275 254.02 115.401 253.267 115.401ZM253.141 105.481C252.262 105.481 251.509 105.858 250.881 106.485C250.253 107.113 250.002 107.992 249.876 108.871H255.904V108.62C255.904 107.741 255.652 106.862 255.15 106.36C254.773 105.732 254.02 105.481 253.141 105.481Z" fill="black"/>
<path d="M260.051 109.999C260.051 108.367 260.427 106.985 261.055 105.981C261.809 104.976 262.813 104.474 264.069 104.474C264.822 104.474 265.45 104.6 265.953 104.976C266.455 105.228 266.957 105.73 267.334 106.232V100.079H268.464V115.273H267.459L267.334 113.766C266.957 114.269 266.58 114.771 265.953 115.022C265.45 115.273 264.697 115.524 264.069 115.524C262.813 115.524 261.809 115.022 261.181 114.143C260.427 113.264 260.176 112.008 260.176 110.376V109.999H260.051ZM261.181 110.25C261.181 111.506 261.432 112.511 261.934 113.264C262.437 114.017 263.19 114.394 264.195 114.394C264.948 114.394 265.576 114.269 266.078 113.892C266.58 113.515 266.957 113.138 267.208 112.511V107.488C266.957 106.86 266.58 106.358 266.078 105.981C265.576 105.604 264.948 105.479 264.195 105.479C263.19 105.479 262.437 105.855 261.934 106.734C261.432 107.613 261.181 108.618 261.181 109.999V110.25Z" fill="black"/>
<path d="M286.797 110.25C286.797 111.883 286.42 113.138 285.666 114.017C284.913 114.896 284.034 115.399 282.778 115.399C282.025 115.399 281.397 115.273 280.769 114.896C280.267 114.645 279.765 114.143 279.388 113.641L279.137 115.273H278.258V100.079H279.388V106.358C279.765 105.73 280.141 105.353 280.769 104.976C281.272 104.6 281.899 104.474 282.653 104.474C283.908 104.474 284.913 104.976 285.666 105.981C286.42 106.985 286.797 108.367 286.797 109.999V110.25V110.25ZM285.666 109.999C285.666 108.618 285.415 107.613 284.913 106.734C284.411 105.855 283.657 105.479 282.653 105.479C281.899 105.479 281.146 105.73 280.769 106.106C280.267 106.483 279.89 106.986 279.639 107.613V112.385C279.89 113.013 280.267 113.515 280.769 113.766C281.272 114.143 281.899 114.269 282.653 114.269C283.657 114.269 284.411 113.892 284.913 113.138C285.415 112.385 285.666 111.38 285.666 110.125V109.999Z" fill="black"/>
<path d="M293.199 112.26L293.575 113.515L296.714 104.6H297.97L293.45 116.78C293.199 117.533 292.822 118.036 292.445 118.538C292.068 119.04 291.315 119.291 290.562 119.291C290.436 119.291 290.31 119.291 290.059 119.291C289.808 119.291 289.683 119.291 289.683 119.166L289.808 118.161C289.934 118.161 290.059 118.161 290.185 118.161C290.31 118.161 290.436 118.161 290.562 118.161C291.064 118.161 291.441 118.036 291.817 117.659C292.068 117.282 292.32 116.78 292.571 116.278L293.073 114.897L289.055 104.474H290.31L293.199 112.26Z" fill="black"/>
<path d="M316.809 110.755C316.809 112.136 316.432 113.266 315.427 114.145C314.548 115.024 313.293 115.401 311.786 115.401C310.153 115.401 308.898 114.773 308.019 113.643C307.014 112.513 306.512 111.006 306.512 109.248V106.988C306.512 105.23 307.014 103.723 308.019 102.593C309.023 101.463 310.279 100.835 311.786 100.835C313.293 100.835 314.548 101.211 315.427 102.09C316.306 102.844 316.809 103.974 316.809 105.481H315.678C315.678 104.351 315.302 103.472 314.674 102.844C313.92 102.216 313.041 101.839 311.786 101.839C310.53 101.839 309.525 102.342 308.772 103.221C308.019 104.225 307.642 105.355 307.642 106.862V109.122C307.642 110.629 308.019 111.885 308.772 112.764C309.525 113.769 310.53 114.145 311.786 114.145C313.041 114.145 313.92 113.894 314.674 113.266C315.427 112.638 315.678 111.759 315.678 110.504H316.809V110.755Z" fill="black"/>
<path d="M319.944 109.748C319.944 108.241 320.321 106.986 321.2 105.981C322.079 104.976 323.209 104.474 324.59 104.474C325.972 104.474 327.102 104.976 327.981 105.981C328.86 106.986 329.237 108.241 329.237 109.748V110.125C329.237 111.632 328.86 112.887 327.981 113.892C327.102 114.897 325.972 115.399 324.59 115.399C323.209 115.399 322.079 114.897 321.2 113.892C320.321 112.887 319.944 111.632 319.944 110.125V109.748ZM321.075 110.125C321.075 111.381 321.326 112.385 321.953 113.139C322.581 114.018 323.46 114.394 324.465 114.394C325.595 114.394 326.348 114.018 326.976 113.139C327.604 112.26 327.855 111.255 327.855 110.125V109.748C327.855 108.492 327.604 107.488 326.976 106.734C326.348 105.855 325.469 105.479 324.465 105.479C323.335 105.479 322.581 105.855 321.953 106.734C321.326 107.613 321.075 108.618 321.075 109.748V110.125Z" fill="black"/>
<path d="M333.633 104.727L333.758 106.611C334.135 105.983 334.512 105.481 335.14 105.104C335.768 104.727 336.395 104.602 337.149 104.602C338.279 104.602 339.158 104.979 339.786 105.606C340.414 106.36 340.665 107.364 340.665 108.871V115.275H339.535V108.871C339.535 107.616 339.284 106.862 338.907 106.36C338.405 105.858 337.777 105.606 337.023 105.606C336.27 105.606 335.516 105.858 335.014 106.234C334.512 106.611 334.135 107.239 333.884 107.867V115.275H332.754V104.727H333.633V104.727Z" fill="black"/>
<path d="M346.44 101.963V104.6H348.701V105.604H346.44V112.385C346.44 113.013 346.566 113.515 346.817 113.892C347.068 114.269 347.445 114.269 347.822 114.269C347.947 114.269 348.073 114.269 348.198 114.269C348.324 114.269 348.45 114.269 348.701 114.143L348.826 115.022C348.701 115.148 348.45 115.148 348.198 115.273C347.947 115.273 347.696 115.399 347.571 115.399C346.817 115.399 346.315 115.148 345.813 114.645C345.436 114.143 345.185 113.39 345.185 112.385V105.604H343.427V104.6H345.185V101.963H346.44V101.963Z" fill="black"/>
<path d="M356.864 105.604H355.984C355.231 105.604 354.603 105.855 354.227 106.232C353.724 106.609 353.473 107.237 353.222 107.865V115.148H352.092V104.6H353.096L353.222 106.358V106.483C353.473 105.855 353.975 105.353 354.478 104.976C354.98 104.6 355.608 104.474 356.361 104.474C356.487 104.474 356.612 104.474 356.738 104.474C356.864 104.474 356.989 104.474 357.115 104.6L356.864 105.604Z" fill="black"/>
<path d="M366.407 115.148C366.281 114.771 366.281 114.52 366.281 114.143C366.281 113.892 366.281 113.641 366.281 113.39C365.904 114.017 365.402 114.394 364.774 114.771C364.146 115.148 363.393 115.273 362.514 115.273C361.509 115.273 360.63 115.022 360.128 114.394C359.5 113.892 359.249 113.138 359.249 112.134C359.249 111.255 359.626 110.376 360.505 109.874C361.384 109.246 362.388 108.995 363.644 108.995H366.281V107.739C366.281 106.986 366.03 106.358 365.528 105.981C365.025 105.604 364.397 105.353 363.518 105.353C362.765 105.353 362.137 105.604 361.635 105.981C361.133 106.358 360.881 106.86 360.881 107.488H359.751C359.751 106.734 360.002 105.981 360.756 105.353C361.509 104.725 362.388 104.474 363.518 104.474C364.649 104.474 365.653 104.725 366.281 105.353C367.034 105.981 367.286 106.734 367.286 107.865V113.013C367.286 113.39 367.286 113.766 367.411 114.143C367.411 114.52 367.537 114.897 367.662 115.148H366.407ZM362.639 114.394C363.518 114.394 364.272 114.143 364.9 113.766C365.528 113.39 366.03 112.762 366.281 112.134V110.125H363.644C362.639 110.125 361.886 110.376 361.258 110.753C360.63 111.255 360.379 111.757 360.379 112.385C360.379 113.013 360.63 113.515 361.007 113.766C361.384 114.143 361.886 114.394 362.639 114.394Z" fill="black"/>
<path d="M371.054 109.999C371.054 108.367 371.43 106.985 372.058 105.981C372.686 104.976 373.816 104.474 375.072 104.474C375.825 104.474 376.453 104.6 376.956 104.976C377.458 105.228 377.96 105.73 378.337 106.232V100.079H379.467V115.273H378.462L378.337 113.766C377.96 114.269 377.583 114.771 376.956 115.022C376.453 115.273 375.7 115.524 375.072 115.524C373.816 115.524 372.812 115.022 372.184 114.143C371.43 113.264 371.179 112.008 371.179 110.376V109.999H371.054ZM372.184 110.25C372.184 111.506 372.435 112.511 372.937 113.264C373.44 114.017 374.193 114.394 375.198 114.394C375.951 114.394 376.579 114.269 377.081 113.892C377.583 113.515 377.96 113.138 378.211 112.511V107.488C377.96 106.86 377.583 106.358 377.081 105.981C376.579 105.604 375.951 105.479 375.198 105.479C374.193 105.479 373.44 105.855 372.937 106.734C372.435 107.613 372.184 108.618 372.184 109.999V110.25Z" fill="black"/>
<path d="M387.502 115.401C386.121 115.401 384.991 114.899 384.237 114.02C383.358 113.015 382.981 111.885 382.981 110.378V109.876C382.981 108.369 383.358 107.113 384.237 106.109C385.116 105.104 386.121 104.602 387.376 104.602C388.632 104.602 389.637 104.979 390.39 105.858C391.144 106.737 391.395 107.741 391.395 109.122V110.001H384.112V110.378C384.112 111.634 384.363 112.513 384.991 113.392C385.618 114.145 386.372 114.522 387.502 114.522C388.13 114.522 388.758 114.396 389.26 114.145C389.762 113.894 390.265 113.643 390.641 113.266L391.144 114.02C390.767 114.396 390.265 114.773 389.637 115.024C389.009 115.275 388.381 115.401 387.502 115.401ZM387.376 105.481C386.497 105.481 385.744 105.858 385.116 106.485C384.488 107.113 384.237 107.992 384.112 108.871H390.139V108.62C390.139 107.741 389.888 106.862 389.386 106.36C389.009 105.732 388.381 105.481 387.376 105.481Z" fill="black"/>
<path d="M399.558 105.604H398.679C397.925 105.604 397.298 105.855 396.921 106.232C396.419 106.609 396.167 107.237 395.916 107.865V115.148H394.786V104.6H395.791L395.916 106.358V106.483C396.167 105.855 396.67 105.353 397.172 104.976C397.674 104.6 398.302 104.474 399.056 104.474C399.181 104.474 399.307 104.474 399.432 104.474C399.558 104.474 399.683 104.474 399.809 104.6L399.558 105.604Z" fill="black"/>
</svg>
